<?xml version="1.0" encoding="UTF-8"?>
<svg xmlns="http://www.w3.org/2000/svg" xmlns:xlink="http://www.w3.org/1999/xlink" width="128pt" height="128pt" viewBox="0 0 128 128" version="1.1">
<defs>
<filter id="alpha" filterUnits="objectBoundingBox" x="0%" y="0%" width="100%" height="100%">
  <feColorMatrix type="matrix" in="SourceGraphic" values="0 0 0 0 1 0 0 0 0 1 0 0 0 0 1 0 0 0 1 0"/>
</filter>
<mask id="mask0">
  <g filter="url(#alpha)">
<rect x="0" y="0" width="128" height="128" style="fill:rgb(0%,0%,0%);fill-opacity:0.403922;stroke:none;"/>
  </g>
</mask>
<linearGradient id="linear0" gradientUnits="userSpaceOnUse" x1="302.86" y1="366.65" x2="302.86" y2="609.51" gradientTransform="matrix(0.178381,0,0,0.0329413,-0.472587,102.589333)">
<stop offset="0" style="stop-color:rgb(0%,0%,0%);stop-opacity:0;"/>
<stop offset="0.5" style="stop-color:rgb(0%,0%,0%);stop-opacity:1;"/>
<stop offset="1" style="stop-color:rgb(0%,0%,0%);stop-opacity:0;"/>
</linearGradient>
<clipPath id="clip1">
  <rect x="0" y="0" width="128" height="128"/>
</clipPath>
<g id="surface5" clip-path="url(#clip1)">
<path style=" stroke:none;fill-rule:nonzero;fill:url(#linear0);" d="M 20.933594 114.667969 L 107.066406 114.667969 L 107.066406 122.667969 L 20.933594 122.667969 Z M 20.933594 114.667969 "/>
</g>
<mask id="mask1">
  <g filter="url(#alpha)">
<rect x="0" y="0" width="128" height="128" style="fill:rgb(0%,0%,0%);fill-opacity:0.403922;stroke:none;"/>
  </g>
</mask>
<radialGradient id="radial0" gradientUnits="userSpaceOnUse" cx="605.71" cy="486.65" fx="605.71" fy="486.65" r="117.14" gradientTransform="matrix(-0.0610453,0,0,0.0329413,57.722667,102.589333)">
<stop offset="0" style="stop-color:rgb(0%,0%,0%);stop-opacity:1;"/>
<stop offset="1" style="stop-color:rgb(0%,0%,0%);stop-opacity:0;"/>
</radialGradient>
<clipPath id="clip2">
  <rect x="0" y="0" width="128" height="128"/>
</clipPath>
<g id="surface8" clip-path="url(#clip2)">
<path style=" stroke:none;fill-rule:nonzero;fill:url(#radial0);" d="M 20.933594 114.667969 L 20.933594 122.667969 C 17.789062 122.679688 13.332031 120.875 13.332031 118.664062 C 13.332031 116.457031 16.839844 114.667969 20.933594 114.667969 Z M 20.933594 114.667969 "/>
</g>
<mask id="mask2">
  <g filter="url(#alpha)">
<rect x="0" y="0" width="128" height="128" style="fill:rgb(0%,0%,0%);fill-opacity:0.403922;stroke:none;"/>
  </g>
</mask>
<radialGradient id="radial1" gradientUnits="userSpaceOnUse" cx="605.71" cy="486.65" fx="605.71" fy="486.65" r="117.14" gradientTransform="matrix(0.0610453,0,0,0.0329413,70.277333,102.589333)">
<stop offset="0" style="stop-color:rgb(0%,0%,0%);stop-opacity:1;"/>
<stop offset="1" style="stop-color:rgb(0%,0%,0%);stop-opacity:0;"/>
</radialGradient>
<clipPath id="clip3">
  <rect x="0" y="0" width="128" height="128"/>
</clipPath>
<g id="surface11" clip-path="url(#clip3)">
<path style=" stroke:none;fill-rule:nonzero;fill:url(#radial1);" d="M 107.066406 114.667969 L 107.066406 122.667969 C 110.210938 122.679688 114.667969 120.875 114.667969 118.664062 C 114.667969 116.457031 111.160156 114.667969 107.066406 114.667969 Z M 107.066406 114.667969 "/>
</g>
<linearGradient id="linear1" gradientUnits="userSpaceOnUse" x1="-60.97" y1="13.668" x2="-60.908" y2="114.54" gradientTransform="matrix(0.45037,0.00027173,-0.00027421,0.4463,46.808,-6.9909)">
<stop offset="0" style="stop-color:rgb(95.686275%,95.686275%,95.686275%);stop-opacity:1;"/>
<stop offset="1" style="stop-color:rgb(85.882353%,85.882353%,85.882353%);stop-opacity:1;"/>
</linearGradient>
<linearGradient id="linear2" gradientUnits="userSpaceOnUse" x1="11.536" y1="44.952" x2="11.536" y2="-1.0041" gradientTransform="matrix(1,0,0,1,0.0000005,0.047615)">
<stop offset="0" style="stop-color:rgb(62.745098%,62.745098%,62.745098%);stop-opacity:1;"/>
<stop offset="1" style="stop-color:rgb(78.431373%,78.431373%,78.431373%);stop-opacity:1;"/>
</linearGradient>
<mask id="mask3">
  <g filter="url(#alpha)">
<rect x="0" y="0" width="128" height="128" style="fill:rgb(0%,0%,0%);fill-opacity:0.592157;stroke:none;"/>
  </g>
</mask>
<clipPath id="clip4">
  <rect x="0" y="0" width="128" height="128"/>
</clipPath>
<g id="surface14" clip-path="url(#clip4)">
<path style="fill-rule:evenodd;fill:rgb(50.196078%,70.196078%,100%);fill-opacity:1;stroke-width:0.5;stroke-linecap:round;stroke-linejoin:round;stroke:rgb(96.470588%,67.058824%,67.058824%);stroke-opacity:1;stroke-miterlimit:4;" d="M 12.688477 4.249512 L 12.250488 43.750488 " transform="matrix(2.666667,0,0,2.666667,0,0)"/>
</g>
<mask id="mask4">
  <g filter="url(#alpha)">
<rect x="0" y="0" width="128" height="128" style="fill:rgb(0%,0%,0%);fill-opacity:0.435294;stroke:none;"/>
  </g>
</mask>
<clipPath id="clip5">
  <rect x="0" y="0" width="128" height="128"/>
</clipPath>
<g id="surface17" clip-path="url(#clip5)">
<path style="fill-rule:evenodd;fill:rgb(50.196078%,70.196078%,100%);fill-opacity:1;stroke-width:0.25;stroke-linecap:round;stroke-linejoin:round;stroke:rgb(50.196078%,70.196078%,100%);stroke-opacity:1;stroke-miterlimit:4;" d="M 40.057617 9.874512 L 7.876465 9.689941 " transform="matrix(2.666667,0,0,2.666667,0,0)"/>
</g>
<mask id="mask5">
  <g filter="url(#alpha)">
<rect x="0" y="0" width="128" height="128" style="fill:rgb(0%,0%,0%);fill-opacity:0.435294;stroke:none;"/>
  </g>
</mask>
<clipPath id="clip6">
  <rect x="0" y="0" width="128" height="128"/>
</clipPath>
<g id="surface20" clip-path="url(#clip6)">
<path style="fill-rule:evenodd;fill:rgb(50.196078%,70.196078%,100%);fill-opacity:1;stroke-width:0.25;stroke-linecap:round;stroke-linejoin:round;stroke:rgb(50.196078%,70.196078%,100%);stroke-opacity:1;stroke-miterlimit:4;" d="M 40.130859 11.875488 L 7.867676 11.690918 " transform="matrix(2.666667,0,0,2.666667,0,0)"/>
</g>
<mask id="mask6">
  <g filter="url(#alpha)">
<rect x="0" y="0" width="128" height="128" style="fill:rgb(0%,0%,0%);fill-opacity:0.435294;stroke:none;"/>
  </g>
</mask>
<clipPath id="clip7">
  <rect x="0" y="0" width="128" height="128"/>
</clipPath>
<g id="surface23" clip-path="url(#clip7)">
<path style="fill-rule:evenodd;fill:rgb(50.196078%,70.196078%,100%);fill-opacity:1;stroke-width:0.25;stroke-linecap:round;stroke-linejoin:round;stroke:rgb(50.196078%,70.196078%,100%);stroke-opacity:1;stroke-miterlimit:4;" d="M 40.214355 13.875 L 7.785645 13.69043 " transform="matrix(2.666667,0,0,2.666667,0,0)"/>
</g>
<mask id="mask7">
  <g filter="url(#alpha)">
<rect x="0" y="0" width="128" height="128" style="fill:rgb(0%,0%,0%);fill-opacity:0.435294;stroke:none;"/>
  </g>
</mask>
<clipPath id="clip8">
  <rect x="0" y="0" width="128" height="128"/>
</clipPath>
<g id="surface26" clip-path="url(#clip8)">
<path style="fill-rule:evenodd;fill:rgb(50.196078%,70.196078%,100%);fill-opacity:1;stroke-width:0.25;stroke-linecap:round;stroke-linejoin:round;stroke:rgb(50.196078%,70.196078%,100%);stroke-opacity:1;stroke-miterlimit:4;" d="M 40.296387 15.874512 L 7.703613 15.689941 " transform="matrix(2.666667,0,0,2.666667,0,0)"/>
</g>
<mask id="mask8">
  <g filter="url(#alpha)">
<rect x="0" y="0" width="128" height="128" style="fill:rgb(0%,0%,0%);fill-opacity:0.435294;stroke:none;"/>
  </g>
</mask>
<clipPath id="clip9">
  <rect x="0" y="0" width="128" height="128"/>
</clipPath>
<g id="surface29" clip-path="url(#clip9)">
<path style="fill-rule:evenodd;fill:rgb(50.196078%,70.196078%,100%);fill-opacity:1;stroke-width:0.25;stroke-linecap:round;stroke-linejoin:round;stroke:rgb(50.196078%,70.196078%,100%);stroke-opacity:1;stroke-miterlimit:4;" d="M 40.296387 17.875488 L 7.703613 17.690918 " transform="matrix(2.666667,0,0,2.666667,0,0)"/>
</g>
<mask id="mask9">
  <g filter="url(#alpha)">
<rect x="0" y="0" width="128" height="128" style="fill:rgb(0%,0%,0%);fill-opacity:0.435294;stroke:none;"/>
  </g>
</mask>
<clipPath id="clip10">
  <rect x="0" y="0" width="128" height="128"/>
</clipPath>
<g id="surface32" clip-path="url(#clip10)">
<path style="fill-rule:evenodd;fill:rgb(50.196078%,70.196078%,100%);fill-opacity:1;stroke-width:0.25;stroke-linecap:round;stroke-linejoin:round;stroke:rgb(50.196078%,70.196078%,100%);stroke-opacity:1;stroke-miterlimit:4;" d="M 40.378418 19.875 L 7.620117 19.69043 " transform="matrix(2.666667,0,0,2.666667,0,0)"/>
</g>
<mask id="mask10">
  <g filter="url(#alpha)">
<rect x="0" y="0" width="128" height="128" style="fill:rgb(0%,0%,0%);fill-opacity:0.435294;stroke:none;"/>
  </g>
</mask>
<clipPath id="clip11">
  <rect x="0" y="0" width="128" height="128"/>
</clipPath>
<g id="surface35" clip-path="url(#clip11)">
<path style="fill-rule:evenodd;fill:rgb(50.196078%,70.196078%,100%);fill-opacity:1;stroke-width:0.25;stroke-linecap:round;stroke-linejoin:round;stroke:rgb(50.196078%,70.196078%,100%);stroke-opacity:1;stroke-miterlimit:4;" d="M 40.378418 21.874512 L 7.620117 21.689941 " transform="matrix(2.666667,0,0,2.666667,0,0)"/>
</g>
<mask id="mask11">
  <g filter="url(#alpha)">
<rect x="0" y="0" width="128" height="128" style="fill:rgb(0%,0%,0%);fill-opacity:0.435294;stroke:none;"/>
  </g>
</mask>
<clipPath id="clip12">
  <rect x="0" y="0" width="128" height="128"/>
</clipPath>
<g id="surface38" clip-path="url(#clip12)">
<path style="fill-rule:evenodd;fill:rgb(50.196078%,70.196078%,100%);fill-opacity:1;stroke-width:0.25;stroke-linecap:round;stroke-linejoin:round;stroke:rgb(50.196078%,70.196078%,100%);stroke-opacity:1;stroke-miterlimit:4;" d="M 40.461914 23.875488 L 7.538086 23.690918 " transform="matrix(2.666667,0,0,2.666667,0,0)"/>
</g>
<mask id="mask12">
  <g filter="url(#alpha)">
<rect x="0" y="0" width="128" height="128" style="fill:rgb(0%,0%,0%);fill-opacity:0.435294;stroke:none;"/>
  </g>
</mask>
<clipPath id="clip13">
  <rect x="0" y="0" width="128" height="128"/>
</clipPath>
<g id="surface41" clip-path="url(#clip13)">
<path style="fill-rule:evenodd;fill:rgb(50.196078%,70.196078%,100%);fill-opacity:1;stroke-width:0.25;stroke-linecap:round;stroke-linejoin:round;stroke:rgb(50.196078%,70.196078%,100%);stroke-opacity:1;stroke-miterlimit:4;" d="M 40.461914 25.875 L 7.538086 25.69043 " transform="matrix(2.666667,0,0,2.666667,0,0)"/>
</g>
<mask id="mask13">
  <g filter="url(#alpha)">
<rect x="0" y="0" width="128" height="128" style="fill:rgb(0%,0%,0%);fill-opacity:0.435294;stroke:none;"/>
  </g>
</mask>
<clipPath id="clip14">
  <rect x="0" y="0" width="128" height="128"/>
</clipPath>
<g id="surface44" clip-path="url(#clip14)">
<path style="fill-rule:evenodd;fill:rgb(50.196078%,70.196078%,100%);fill-opacity:1;stroke-width:0.25;stroke-linecap:round;stroke-linejoin:round;stroke:rgb(50.196078%,70.196078%,100%);stroke-opacity:1;stroke-miterlimit:4;" d="M 40.627441 27.874512 L 7.372559 27.689941 " transform="matrix(2.666667,0,0,2.666667,0,0)"/>
</g>
<mask id="mask14">
  <g filter="url(#alpha)">
<rect x="0" y="0" width="128" height="128" style="fill:rgb(0%,0%,0%);fill-opacity:0.435294;stroke:none;"/>
  </g>
</mask>
<clipPath id="clip15">
  <rect x="0" y="0" width="128" height="128"/>
</clipPath>
<g id="surface47" clip-path="url(#clip15)">
<path style="fill-rule:evenodd;fill:rgb(50.196078%,70.196078%,100%);fill-opacity:1;stroke-width:0.25;stroke-linecap:round;stroke-linejoin:round;stroke:rgb(50.196078%,70.196078%,100%);stroke-opacity:1;stroke-miterlimit:4;" d="M 40.627441 29.86377 L 7.372559 29.679199 " transform="matrix(2.666667,0,0,2.666667,0,0)"/>
</g>
<mask id="mask15">
  <g filter="url(#alpha)">
<rect x="0" y="0" width="128" height="128" style="fill:rgb(0%,0%,0%);fill-opacity:0.435294;stroke:none;"/>
  </g>
</mask>
<clipPath id="clip16">
  <rect x="0" y="0" width="128" height="128"/>
</clipPath>
<g id="surface50" clip-path="url(#clip16)">
<path style="fill-rule:evenodd;fill:rgb(50.196078%,70.196078%,100%);fill-opacity:1;stroke-width:0.25;stroke-linecap:round;stroke-linejoin:round;stroke:rgb(50.196078%,70.196078%,100%);stroke-opacity:1;stroke-miterlimit:4;" d="M 40.875 31.875 L 7.125 31.69043 " transform="matrix(2.666667,0,0,2.666667,0,0)"/>
</g>
<mask id="mask16">
  <g filter="url(#alpha)">
<rect x="0" y="0" width="128" height="128" style="fill:rgb(0%,0%,0%);fill-opacity:0.435294;stroke:none;"/>
  </g>
</mask>
<clipPath id="clip17">
  <rect x="0" y="0" width="128" height="128"/>
</clipPath>
<g id="surface53" clip-path="url(#clip17)">
<path style="fill-rule:evenodd;fill:rgb(50.196078%,70.196078%,100%);fill-opacity:1;stroke-width:0.25;stroke-linecap:round;stroke-linejoin:round;stroke:rgb(50.196078%,70.196078%,100%);stroke-opacity:1;stroke-miterlimit:4;" d="M 40.875 33.830566 L 7.125 33.645996 " transform="matrix(2.666667,0,0,2.666667,0,0)"/>
</g>
<mask id="mask17">
  <g filter="url(#alpha)">
<rect x="0" y="0" width="128" height="128" style="fill:rgb(0%,0%,0%);fill-opacity:0.435294;stroke:none;"/>
  </g>
</mask>
<clipPath id="clip18">
  <rect x="0" y="0" width="128" height="128"/>
</clipPath>
<g id="surface56" clip-path="url(#clip18)">
<path style="fill-rule:evenodd;fill:rgb(50.196078%,70.196078%,100%);fill-opacity:1;stroke-width:0.25;stroke-linecap:round;stroke-linejoin:round;stroke:rgb(50.196078%,70.196078%,100%);stroke-opacity:1;stroke-miterlimit:4;" d="M 40.875 35.813965 L 7.125 35.629395 " transform="matrix(2.666667,0,0,2.666667,0,0)"/>
</g>
<mask id="mask18">
  <g filter="url(#alpha)">
<rect x="0" y="0" width="128" height="128" style="fill:rgb(0%,0%,0%);fill-opacity:0.435294;stroke:none;"/>
  </g>
</mask>
<clipPath id="clip19">
  <rect x="0" y="0" width="128" height="128"/>
</clipPath>
<g id="surface59" clip-path="url(#clip19)">
<path style="fill-rule:evenodd;fill:rgb(50.196078%,70.196078%,100%);fill-opacity:1;stroke-width:0.25;stroke-linecap:round;stroke-linejoin:round;stroke:rgb(50.196078%,70.196078%,100%);stroke-opacity:1;stroke-miterlimit:4;" d="M 40.875 37.797363 L 7.125 37.612793 " transform="matrix(2.666667,0,0,2.666667,0,0)"/>
</g>
<mask id="mask19">
  <g filter="url(#alpha)">
<rect x="0" y="0" width="128" height="128" style="fill:rgb(0%,0%,0%);fill-opacity:0.435294;stroke:none;"/>
  </g>
</mask>
<clipPath id="clip20">
  <rect x="0" y="0" width="128" height="128"/>
</clipPath>
<g id="surface62" clip-path="url(#clip20)">
<path style="fill-rule:evenodd;fill:rgb(50.196078%,70.196078%,100%);fill-opacity:1;stroke-width:0.25;stroke-linecap:round;stroke-linejoin:round;stroke:rgb(50.196078%,70.196078%,100%);stroke-opacity:1;stroke-miterlimit:4;" d="M 40.875 39.779297 L 7.125 39.596191 " transform="matrix(2.666667,0,0,2.666667,0,0)"/>
</g>
<mask id="mask20">
  <g filter="url(#alpha)">
<rect x="0" y="0" width="128" height="128" style="fill:rgb(0%,0%,0%);fill-opacity:0.435294;stroke:none;"/>
  </g>
</mask>
<clipPath id="clip21">
  <rect x="0" y="0" width="128" height="128"/>
</clipPath>
<g id="surface65" clip-path="url(#clip21)">
<path style="fill-rule:evenodd;fill:rgb(50.196078%,70.196078%,100%);fill-opacity:1;stroke-width:0.25;stroke-linecap:round;stroke-linejoin:round;stroke:rgb(50.196078%,70.196078%,100%);stroke-opacity:1;stroke-miterlimit:4;" d="M 40.875 41.875488 L 7.125 41.690918 " transform="matrix(2.666667,0,0,2.666667,0,0)"/>
</g>
<mask id="mask21">
  <g filter="url(#alpha)">
<rect x="0" y="0" width="128" height="128" style="fill:rgb(0%,0%,0%);fill-opacity:0.592157;stroke:none;"/>
  </g>
</mask>
<clipPath id="clip22">
  <rect x="0" y="0" width="128" height="128"/>
</clipPath>
<g id="surface68" clip-path="url(#clip22)">
<path style="fill:none;stroke-width:0.5;stroke-linecap:round;stroke-linejoin:round;stroke:rgb(72.54902%,83.529412%,100%);stroke-opacity:1;stroke-miterlimit:4;" d="M 35.25 4.16748 L 36.298828 43.666992 " transform="matrix(2.666667,0,0,2.666667,0,0)"/>
</g>
<linearGradient id="linear3" gradientUnits="userSpaceOnUse" x1="22.004" y1="44.854" x2="22.004" y2="3.0719" >
<stop offset="0" style="stop-color:rgb(62.745098%,62.745098%,62.745098%);stop-opacity:1;"/>
<stop offset="1" style="stop-color:rgb(78.431373%,78.431373%,78.431373%);stop-opacity:1;"/>
</linearGradient>
<mask id="mask22">
  <g filter="url(#alpha)">
<rect x="0" y="0" width="128" height="128" style="fill:rgb(0%,0%,0%);fill-opacity:0.14902;stroke:none;"/>
  </g>
</mask>
<clipPath id="clip23">
  <rect x="0" y="0" width="128" height="128"/>
</clipPath>
<g id="surface71" clip-path="url(#clip23)">
<path style=" stroke:none;fill-rule:evenodd;fill:rgb(4.705882%,4.705882%,4.705882%);fill-opacity:1;" d="M 102.585938 63.851562 C 102.121094 63.578125 101.765625 63.648438 101.527344 63.800781 L 70.074219 83.832031 L 64.28125 87.527344 L 64.105469 87.601562 L 57.25 103.046875 L 74.238281 103.558594 L 74.378906 103.464844 L 80.203125 99.789062 L 111.652344 79.585938 C 112.597656 78.980469 111.105469 74.96875 108.300781 70.570312 C 106.199219 67.273438 103.96875 64.667969 102.582031 63.851562 Z M 102.585938 63.851562 "/>
</g>
<linearGradient id="linear4" gradientUnits="userSpaceOnUse" x1="23.576" y1="25.357" x2="23.576" y2="31.211" gradientTransform="matrix(0.65657,-0.65979,0.73452,0.73087,-1.013,19.863)">
<stop offset="0" style="stop-color:rgb(9.411765%,9.411765%,9.411765%);stop-opacity:1;"/>
<stop offset="0.13483" style="stop-color:rgb(85.882353%,85.882353%,85.882353%);stop-opacity:1;"/>
<stop offset="0.20224" style="stop-color:rgb(64.313725%,64.313725%,64.313725%);stop-opacity:1;"/>
<stop offset="0.26966" style="stop-color:rgb(100%,100%,100%);stop-opacity:1;"/>
<stop offset="0.4465" style="stop-color:rgb(55.294118%,55.294118%,55.294118%);stop-opacity:1;"/>
<stop offset="0.57114" style="stop-color:rgb(58.431373%,58.431373%,58.431373%);stop-opacity:1;"/>
<stop offset="0.72038" style="stop-color:rgb(80.784314%,80.784314%,80.784314%);stop-opacity:1;"/>
<stop offset="1" style="stop-color:rgb(9.411765%,9.411765%,9.411765%);stop-opacity:1;"/>
</linearGradient>
<mask id="mask23">
  <g filter="url(#alpha)">
<rect x="0" y="0" width="128" height="128" style="fill:rgb(0%,0%,0%);fill-opacity:0.8;stroke:none;"/>
  </g>
</mask>
<clipPath id="clip24">
  <rect x="0" y="0" width="128" height="128"/>
</clipPath>
<g id="surface74" clip-path="url(#clip24)">
<path style="fill-rule:nonzero;fill:rgb(100%,71.372549%,92.941176%);fill-opacity:1;stroke-width:0.5;stroke-linecap:butt;stroke-linejoin:round;stroke:rgb(88.627451%,54.901961%,80.392157%);stroke-opacity:1;stroke-miterlimit:4;" d="M 38.989746 16.902832 C 39.436523 16.568848 40.6875 17.195801 41.837402 18.339844 C 42.984375 19.480957 43.587891 20.702637 43.26123 21.152344 C 43.259766 21.155273 43.289062 21.178711 43.287598 21.180176 L 45.241699 19.21582 L 45.28125 19.17627 C 45.282715 19.174805 45.253418 19.151367 45.254883 19.149902 C 45.581543 18.69873 44.978027 17.478516 43.831055 16.335938 C 42.681152 15.191895 41.430176 14.564941 40.983398 14.898926 L 40.943848 14.939941 Z M 38.989746 16.902832 " transform="matrix(2.666667,0,0,2.666667,0,0)"/>
</g>
<mask id="mask24">
  <g filter="url(#alpha)">
<rect x="0" y="0" width="128" height="128" style="fill:rgb(0%,0%,0%);fill-opacity:0.6;stroke:none;"/>
  </g>
</mask>
<clipPath id="clip25">
  <rect x="0" y="0" width="128" height="128"/>
</clipPath>
<g id="surface77" clip-path="url(#clip25)">
<path style=" stroke:none;fill-rule:nonzero;fill:rgb(4.705882%,4.705882%,4.705882%);fill-opacity:1;" d="M 66.492188 82.742188 C 67.679688 81.847656 71.015625 83.523438 74.082031 86.574219 C 77.140625 89.617188 78.753906 92.875 77.878906 94.074219 C 77.878906 94.078125 77.957031 94.140625 77.953125 94.144531 L 107.355469 64.597656 L 107.460938 64.492188 C 107.464844 64.488281 107.386719 64.425781 107.390625 64.421875 C 108.261719 63.21875 106.648438 59.964844 103.589844 56.921875 C 100.523438 53.871094 97.1875 52.195312 96 53.085938 L 95.894531 53.195312 Z M 66.492188 82.742188 "/>
</g>
<linearGradient id="linear5" gradientUnits="userSpaceOnUse" x1="30.038" y1="24.99" x2="30.038" y2="30" gradientTransform="matrix(1.70136,-1.709707,2.292347,2.280933,-9.117333,43.965333)">
<stop offset="0" style="stop-color:rgb(33.72549%,33.72549%,33.72549%);stop-opacity:1;"/>
<stop offset="0.5" style="stop-color:rgb(60.392157%,60.392157%,60.392157%);stop-opacity:1;"/>
<stop offset="1" style="stop-color:rgb(32.941176%,32.941176%,32.941176%);stop-opacity:1;"/>
</linearGradient>
<linearGradient id="linear6" gradientUnits="userSpaceOnUse" x1="30.038" y1="24.99" x2="30.038" y2="30" gradientTransform="matrix(1.70136,-1.709707,2.292347,2.280933,-9.604533,44.456)">
<stop offset="0" style="stop-color:rgb(69.411765%,69.411765%,69.411765%);stop-opacity:1;"/>
<stop offset="0.5" style="stop-color:rgb(100%,100%,100%);stop-opacity:1;"/>
<stop offset="1" style="stop-color:rgb(56.078431%,56.078431%,56.078431%);stop-opacity:1;"/>
</linearGradient>
<linearGradient id="linear7" gradientUnits="userSpaceOnUse" x1="30.038" y1="24.99" x2="30.038" y2="30" gradientTransform="matrix(1.70136,-1.709707,2.292347,2.280933,-7.424267,42.264)">
<stop offset="0" style="stop-color:rgb(33.72549%,33.72549%,33.72549%);stop-opacity:1;"/>
<stop offset="0.5" style="stop-color:rgb(60.392157%,60.392157%,60.392157%);stop-opacity:1;"/>
<stop offset="1" style="stop-color:rgb(32.941176%,32.941176%,32.941176%);stop-opacity:1;"/>
</linearGradient>
<linearGradient id="linear8" gradientUnits="userSpaceOnUse" x1="30.038" y1="24.99" x2="30.038" y2="30" gradientTransform="matrix(1.70136,-1.709707,2.292347,2.280933,-7.911467,42.754667)">
<stop offset="0" style="stop-color:rgb(69.411765%,69.411765%,69.411765%);stop-opacity:1;"/>
<stop offset="0.5" style="stop-color:rgb(100%,100%,100%);stop-opacity:1;"/>
<stop offset="1" style="stop-color:rgb(56.078431%,56.078431%,56.078431%);stop-opacity:1;"/>
</linearGradient>
<linearGradient id="linear9" gradientUnits="userSpaceOnUse" x1="30.038" y1="24.99" x2="30.038" y2="30" gradientTransform="matrix(1.70136,-1.709707,2.292347,2.280933,-5.722933,40.554667)">
<stop offset="0" style="stop-color:rgb(33.72549%,33.72549%,33.72549%);stop-opacity:1;"/>
<stop offset="0.5" style="stop-color:rgb(60.392157%,60.392157%,60.392157%);stop-opacity:1;"/>
<stop offset="1" style="stop-color:rgb(32.941176%,32.941176%,32.941176%);stop-opacity:1;"/>
</linearGradient>
<linearGradient id="linear10" gradientUnits="userSpaceOnUse" x1="30.038" y1="24.99" x2="30.038" y2="30" gradientTransform="matrix(1.70136,-1.709707,2.292347,2.280933,-6.210133,41.045333)">
<stop offset="0" style="stop-color:rgb(69.411765%,69.411765%,69.411765%);stop-opacity:1;"/>
<stop offset="0.5" style="stop-color:rgb(100%,100%,100%);stop-opacity:1;"/>
<stop offset="1" style="stop-color:rgb(56.078431%,56.078431%,56.078431%);stop-opacity:1;"/>
</linearGradient>
<linearGradient id="linear11" gradientUnits="userSpaceOnUse" x1="9" y1="29.057" x2="9" y2="26.03" gradientTransform="matrix(0.63801,-0.64114,0.85963,0.85535,-3.6613,16.731)">
<stop offset="0" style="stop-color:rgb(92.54902%,89.803922%,64.705882%);stop-opacity:1;"/>
<stop offset="1" style="stop-color:rgb(98.823529%,98.431373%,94.901961%);stop-opacity:1;"/>
</linearGradient>
<linearGradient id="linear12" gradientUnits="userSpaceOnUse" x1="5.5179" y1="37.372" x2="9.5221" y2="41.392" gradientTransform="matrix(0.56036,0.024186,0.024156,0.55967,19.547,13.104)">
<stop offset="0" style="stop-color:rgb(85.882353%,80.784314%,28.235294%);stop-opacity:1;"/>
<stop offset="1" style="stop-color:rgb(77.254902%,71.372549%,14.509804%);stop-opacity:1;"/>
</linearGradient>
</defs>
<g id="surface1">
<use xlink:href="#surface5" mask="url(#mask0)"/>
<use xlink:href="#surface8" mask="url(#mask1)"/>
<use xlink:href="#surface11" mask="url(#mask2)"/>
<path style="fill-rule:nonzero;fill:url(#linear1);stroke-width:1;stroke-linecap:round;stroke-linejoin:round;stroke:url(#linear2);stroke-miterlimit:4;" d="M 7.5 3.499512 C 16.022461 3.505371 31.977539 3.495117 40.5 3.499512 C 40.574707 5.106445 41.424316 41.698242 41.499023 44.500488 C 29.833008 44.493164 18.165527 44.48584 6.499512 44.478516 C 6.591797 41.332031 7.407715 4.911621 7.5 3.499512 Z M 7.5 3.499512 " transform="matrix(2.666667,0,0,2.666667,0,0)"/>
<use xlink:href="#surface14" mask="url(#mask3)"/>
<use xlink:href="#surface17" mask="url(#mask4)"/>
<use xlink:href="#surface20" mask="url(#mask5)"/>
<use xlink:href="#surface23" mask="url(#mask6)"/>
<use xlink:href="#surface26" mask="url(#mask7)"/>
<use xlink:href="#surface29" mask="url(#mask8)"/>
<use xlink:href="#surface32" mask="url(#mask9)"/>
<use xlink:href="#surface35" mask="url(#mask10)"/>
<use xlink:href="#surface38" mask="url(#mask11)"/>
<use xlink:href="#surface41" mask="url(#mask12)"/>
<use xlink:href="#surface44" mask="url(#mask13)"/>
<use xlink:href="#surface47" mask="url(#mask14)"/>
<use xlink:href="#surface50" mask="url(#mask15)"/>
<use xlink:href="#surface53" mask="url(#mask16)"/>
<use xlink:href="#surface56" mask="url(#mask17)"/>
<use xlink:href="#surface59" mask="url(#mask18)"/>
<use xlink:href="#surface62" mask="url(#mask19)"/>
<use xlink:href="#surface65" mask="url(#mask20)"/>
<use xlink:href="#surface68" mask="url(#mask21)"/>
<path style="fill:none;stroke-width:1;stroke-linecap:butt;stroke-linejoin:miter;stroke:url(#linear3);stroke-miterlimit:4;" d="M 12.999023 11.545898 L 15.347168 11.545898 M 15.682617 11.545898 L 17.862305 11.545898 M 18.213867 11.545898 L 20.15918 11.545898 M 20.478516 11.545898 L 21.317871 11.545898 M 21.65332 11.545898 L 23.53125 11.545898 M 23.900391 11.545898 L 28.831055 11.545898 M 29.166504 11.545898 L 32.923828 11.545898 M 33.259277 11.545898 L 34.398926 11.545898 M 12.999023 13.5 L 16.63916 13.5 M 17.063965 13.5 L 18.802734 13.5 M 19.125 13.5 L 19.983398 13.5 M 20.332031 13.5 L 21.93457 13.5 M 22.27002 13.5 L 23.913574 13.5 M 24.224121 13.5 L 26.803711 13.5 M 27.13916 13.5 L 30.543457 13.5 M 12.999023 15.479004 L 16.07959 15.479004 M 16.40332 15.479004 L 21.479004 15.479004 M 21.789551 15.479004 L 24.250488 15.479004 M 24.566895 15.479004 L 26.868164 15.479004 M 27.199219 15.479004 L 29.160645 15.479004 M 29.475586 15.479004 L 32.560547 15.499512 M 12.997559 17.499023 L 17.282227 17.499023 M 17.619141 17.499023 L 22.249512 17.499023 M 22.568848 17.499023 L 24.389648 17.499023 M 24.725098 17.499023 L 29.055176 17.499023 M 29.34668 17.499023 L 32.315918 17.499023 M 32.651367 17.499023 L 33.826172 17.499023 M 34.161621 17.499023 L 34.812012 17.499023 M 12.999023 19.5 L 14.597168 19.5 M 15.089355 19.5 L 21.010254 19.5 M 12.999023 29.499023 L 16.63916 29.499023 M 17.0625 29.499023 L 18.802734 29.499023 M 19.123535 29.499023 L 19.981934 29.499023 M 20.332031 29.499023 L 21.933105 29.499023 M 22.268555 29.499023 L 23.912109 29.499023 M 24.222656 29.499023 L 26.803711 29.499023 M 12.997559 33.479004 L 16.07959 33.479004 M 16.40332 33.479004 L 21.477539 33.479004 M 21.789551 33.479004 L 24.250488 33.479004 M 32.947266 33.540527 L 37.974609 33.540527 M 12.999023 27.499512 L 17.282227 27.499512 M 17.619141 27.499512 L 22.249512 27.499512 M 22.570312 27.499512 L 24.389648 27.499512 M 24.725098 27.499512 L 29.056641 27.499512 M 12.999023 23.499023 L 15.347168 23.499023 M 15.682617 23.499023 L 17.862305 23.499023 M 18.213867 23.499023 L 20.15918 23.499023 M 20.478516 23.499023 L 21.317871 23.499023 M 21.65332 23.499023 L 23.53125 23.499023 M 23.900391 23.499023 L 28.831055 23.499023 M 29.166504 23.499023 L 32.923828 23.499023 M 12.999023 25.5 L 16.954102 25.5 M 17.264648 25.5 L 21.464355 25.5 M 21.783691 25.5 L 23.425781 25.5 M 23.734863 25.5 L 27.685547 25.5 M 28.003418 25.5 L 32.317383 25.5 M 12.999023 35.499023 L 16.694824 35.499023 M 17.090332 35.499023 L 18.719238 35.499023 M 19.101562 35.499023 L 19.914551 35.499023 M 20.172363 35.499023 L 21.776367 35.499023 M 21.990234 35.499023 L 30.481934 35.499023 M 30.881836 35.499023 L 33.147949 35.499023 M 33.452637 35.499023 L 34.025391 35.499023 M 17.208984 37.5 L 18.413086 37.5 M 12.999023 37.5 L 16.855957 37.5 M 18.722168 37.5 L 21.525879 37.5 M 21.823242 37.5 L 25.939453 37.5 M 26.260254 37.5 L 29.052246 37.5 M 29.333496 37.5 L 29.90918 37.5 M 30.224121 37.5 L 33.770508 37.5 M 34.133789 37.5 L 35.989746 37.5 M 17.20752 39.499512 L 18.909668 39.499512 M 12.997559 39.499512 L 16.854492 39.499512 M 19.278809 39.499512 L 21.670898 39.499512 " transform="matrix(2.666667,0,0,2.666667,0,0)"/>
<use xlink:href="#surface71" mask="url(#mask22)"/>
<path style="fill-rule:nonzero;fill:url(#linear4);stroke-width:0.5;stroke-linecap:butt;stroke-linejoin:round;stroke:rgb(4.705882%,4.705882%,4.705882%);stroke-opacity:1;stroke-miterlimit:4;" d="M 24.93457 31.02832 C 25.379883 30.692871 26.630859 31.321289 27.780762 32.465332 C 28.927734 33.606445 29.532715 34.828125 29.20459 35.277832 C 29.20459 35.279297 29.233887 35.302734 29.232422 35.304199 L 45.241699 19.21582 C 45.648926 18.807129 45.017578 17.516602 43.831055 16.335938 C 42.644531 15.155273 41.351074 14.53125 40.943848 14.938477 Z M 24.93457 31.02832 " transform="matrix(2.666667,0,0,2.666667,0,0)"/>
<use xlink:href="#surface74" mask="url(#mask23)"/>
<use xlink:href="#surface77" mask="url(#mask24)"/>
<path style=" stroke:none;fill-rule:nonzero;fill:url(#linear5);" d="M 98.132812 50.945312 C 99.324219 50.050781 102.660156 51.726562 105.726562 54.777344 C 108.785156 57.820312 110.394531 61.078125 109.523438 62.277344 C 109.519531 62.28125 109.597656 62.34375 109.59375 62.347656 L 110.125 61.8125 C 110.128906 61.808594 110.050781 61.746094 110.054688 61.742188 C 110.925781 60.542969 109.316406 57.285156 106.257812 54.242188 C 103.191406 51.191406 99.855469 49.515625 98.664062 50.410156 Z M 98.132812 50.945312 "/>
<path style=" stroke:none;fill-rule:nonzero;fill:url(#linear6);" d="M 97.644531 51.433594 C 98.835938 50.542969 102.171875 52.214844 105.238281 55.265625 C 108.296875 58.308594 109.90625 61.566406 109.035156 62.769531 C 109.03125 62.773438 109.109375 62.835938 109.105469 62.839844 L 109.640625 62.304688 C 109.640625 62.300781 109.5625 62.238281 109.566406 62.234375 C 110.4375 61.03125 108.828125 57.777344 105.769531 54.734375 C 102.703125 51.683594 99.367188 50.007812 98.175781 50.898438 Z M 97.644531 51.433594 "/>
<path style=" stroke:none;fill-rule:nonzero;fill:url(#linear7);" d="M 99.828125 49.242188 C 101.015625 48.351562 104.351562 50.023438 107.417969 53.074219 C 110.476562 56.117188 112.089844 59.375 111.21875 60.574219 C 111.214844 60.582031 111.292969 60.644531 111.289062 60.648438 L 111.820312 60.113281 C 111.824219 60.109375 111.746094 60.046875 111.75 60.042969 C 112.621094 58.839844 111.007812 55.585938 107.949219 52.539062 C 104.882812 49.488281 101.546875 47.816406 100.359375 48.707031 Z M 99.828125 49.242188 "/>
<path style=" stroke:none;fill-rule:nonzero;fill:url(#linear8);" d="M 99.339844 49.734375 C 100.527344 48.839844 103.863281 50.515625 106.929688 53.566406 C 109.988281 56.609375 111.601562 59.867188 110.730469 61.066406 C 110.726562 61.070312 110.804688 61.132812 110.800781 61.136719 L 111.332031 60.605469 C 111.335938 60.597656 111.257812 60.535156 111.261719 60.53125 C 112.132812 59.332031 110.519531 56.074219 107.460938 53.03125 C 104.394531 49.980469 101.058594 48.308594 99.871094 49.199219 Z M 99.339844 49.734375 "/>
<path style=" stroke:none;fill-rule:nonzero;fill:url(#linear9);" d="M 101.527344 47.535156 C 102.71875 46.640625 106.054688 48.316406 109.121094 51.367188 C 112.179688 54.410156 113.789062 57.664062 112.917969 58.867188 C 112.914062 58.871094 112.992188 58.933594 112.988281 58.9375 L 113.519531 58.402344 C 113.523438 58.398438 113.445312 58.335938 113.449219 58.332031 C 114.320312 57.132812 112.710938 53.875 109.652344 50.832031 C 106.585938 47.78125 103.25 46.105469 102.058594 47 Z M 101.527344 47.535156 "/>
<path style=" stroke:none;fill-rule:nonzero;fill:url(#linear10);" d="M 101.039062 48.023438 C 102.230469 47.132812 105.566406 48.804688 108.632812 51.855469 C 111.691406 54.898438 113.300781 58.15625 112.429688 59.355469 C 112.425781 59.363281 112.503906 59.425781 112.5 59.429688 L 113.035156 58.894531 C 113.035156 58.890625 112.957031 58.828125 112.960938 58.824219 C 113.832031 57.621094 112.222656 54.367188 109.164062 51.320312 C 106.097656 48.269531 102.761719 46.597656 101.570312 47.488281 Z M 101.039062 48.023438 "/>
<path style="fill-rule:evenodd;fill:url(#linear11);stroke-width:0.5;stroke-linecap:butt;stroke-linejoin:miter;stroke:url(#linear12);stroke-miterlimit:4;" d="M 21.865723 38.310059 L 29.150391 35.339355 L 29.211914 35.277832 C 29.538574 34.82666 28.92627 33.60498 27.779297 32.463867 C 26.629395 31.319824 25.379883 30.695801 24.93457 31.029785 Z M 21.865723 38.310059 " transform="matrix(2.666667,0,0,2.666667,0,0)"/>
<path style="fill-rule:evenodd;fill:rgb(4.705882%,4.705882%,4.705882%);fill-opacity:1;stroke-width:0.5;stroke-linecap:butt;stroke-linejoin:miter;stroke:rgb(4.705882%,4.705882%,4.705882%);stroke-opacity:1;stroke-miterlimit:4;" d="M 22.696289 36.338379 L 21.865723 38.302734 L 23.852051 37.488281 C 23.692383 37.297852 23.545898 37.104492 23.354004 36.914062 C 23.134277 36.694336 22.91748 36.51709 22.696289 36.338379 Z M 22.696289 36.338379 " transform="matrix(2.666667,0,0,2.666667,0,0)"/>
</g>
</svg>
