<?xml version="1.0" encoding="UTF-8"?>
<svg xmlns="http://www.w3.org/2000/svg" xmlns:xlink="http://www.w3.org/1999/xlink" width="128pt" height="128pt" viewBox="0 0 128 128" version="1.1">
<defs>
<filter id="alpha" filterUnits="objectBoundingBox" x="0%" y="0%" width="100%" height="100%">
  <feColorMatrix type="matrix" in="SourceGraphic" values="0 0 0 0 1 0 0 0 0 1 0 0 0 0 1 0 0 0 1 0"/>
</filter>
<mask id="mask0">
  <g filter="url(#alpha)">
<rect x="0" y="0" width="128" height="128" style="fill:rgb(0%,0%,0%);fill-opacity:0.403922;stroke:none;"/>
  </g>
</mask>
<linearGradient id="linear0" gradientUnits="userSpaceOnUse" x1="302.86" y1="366.65" x2="302.86" y2="609.51" gradientTransform="matrix(0.179533,0,0,0.0392013,-0.909604,101.440655)">
<stop offset="0" style="stop-color:rgb(0%,0%,0%);stop-opacity:0;"/>
<stop offset="0.5" style="stop-color:rgb(0%,0%,0%);stop-opacity:1;"/>
<stop offset="1" style="stop-color:rgb(0%,0%,0%);stop-opacity:0;"/>
</linearGradient>
<clipPath id="clip1">
  <rect x="0" y="0" width="128" height="128"/>
</clipPath>
<g id="surface5" clip-path="url(#clip1)">
<path style=" stroke:none;fill-rule:nonzero;fill:url(#linear0);" d="M 20.632812 115.8125 L 107.324219 115.8125 L 107.324219 125.332031 L 20.632812 125.332031 Z M 20.632812 115.8125 "/>
</g>
<mask id="mask1">
  <g filter="url(#alpha)">
<rect x="0" y="0" width="128" height="128" style="fill:rgb(0%,0%,0%);fill-opacity:0.403922;stroke:none;"/>
  </g>
</mask>
<radialGradient id="radial0" gradientUnits="userSpaceOnUse" cx="605.71" cy="486.65" fx="605.71" fy="486.65" r="117.14" gradientTransform="matrix(-0.0614396,0,0,0.0392013,57.66088,101.440655)">
<stop offset="0" style="stop-color:rgb(0%,0%,0%);stop-opacity:1;"/>
<stop offset="1" style="stop-color:rgb(0%,0%,0%);stop-opacity:0;"/>
</radialGradient>
<clipPath id="clip2">
  <rect x="0" y="0" width="128" height="128"/>
</clipPath>
<g id="surface8" clip-path="url(#clip2)">
<path style=" stroke:none;fill-rule:nonzero;fill:url(#radial0);" d="M 20.632812 115.8125 L 20.632812 125.332031 C 17.46875 125.351562 12.984375 123.199219 12.984375 120.574219 C 12.984375 117.945312 16.515625 115.8125 20.632812 115.8125 Z M 20.632812 115.8125 "/>
</g>
<mask id="mask2">
  <g filter="url(#alpha)">
<rect x="0" y="0" width="128" height="128" style="fill:rgb(0%,0%,0%);fill-opacity:0.403922;stroke:none;"/>
  </g>
</mask>
<radialGradient id="radial1" gradientUnits="userSpaceOnUse" cx="605.71" cy="486.65" fx="605.71" fy="486.65" r="117.14" gradientTransform="matrix(0.0614396,0,0,0.0392013,70.297094,101.440655)">
<stop offset="0" style="stop-color:rgb(0%,0%,0%);stop-opacity:1;"/>
<stop offset="1" style="stop-color:rgb(0%,0%,0%);stop-opacity:0;"/>
</radialGradient>
<clipPath id="clip3">
  <rect x="0" y="0" width="128" height="128"/>
</clipPath>
<g id="surface11" clip-path="url(#clip3)">
<path style=" stroke:none;fill-rule:nonzero;fill:url(#radial1);" d="M 107.324219 115.8125 L 107.324219 125.332031 C 110.488281 125.351562 114.972656 123.199219 114.972656 120.574219 C 114.972656 117.945312 111.441406 115.8125 107.324219 115.8125 Z M 107.324219 115.8125 "/>
</g>
<linearGradient id="linear1" gradientUnits="userSpaceOnUse" x1="16.102" y1="9.8889" x2="38.491" y2="46" gradientTransform="matrix(0.97391,0,0,1.0485,2.0472,-2.2169)">
<stop offset="0" style="stop-color:rgb(86.666667%,81.176471%,74.117647%);stop-opacity:1;"/>
<stop offset="1" style="stop-color:rgb(52.156863%,43.529412%,31.372549%);stop-opacity:1;"/>
</linearGradient>
<linearGradient id="linear2" gradientUnits="userSpaceOnUse" x1="22.334" y1="11.03" x2="53.453" y2="61.22" gradientTransform="matrix(0.70071,0,0,0.75439,2.0789,-0.16914)">
<stop offset="0" style="stop-color:rgb(68.627451%,60.784314%,49.803922%);stop-opacity:1;"/>
<stop offset="1" style="stop-color:rgb(45.098039%,38.039216%,28.235294%);stop-opacity:1;"/>
</linearGradient>
<linearGradient id="linear3" gradientUnits="userSpaceOnUse" x1="5.4801" y1="25.019" x2="8.5001" y2="25.019" gradientTransform="matrix(2.23232,0,0,2.7808,5.204267,-5.592533)">
<stop offset="0" style="stop-color:rgb(30.196078%,32.941176%,34.901961%);stop-opacity:0.996078;"/>
<stop offset="1" style="stop-color:rgb(7.843137%,10.588235%,12.156863%);stop-opacity:1;"/>
</linearGradient>
<mask id="mask3">
  <g filter="url(#alpha)">
<rect x="0" y="0" width="128" height="128" style="fill:rgb(0%,0%,0%);fill-opacity:0.4;stroke:none;"/>
  </g>
</mask>
<clipPath id="clip4">
  <rect x="0" y="0" width="128" height="128"/>
</clipPath>
<g id="surface14" clip-path="url(#clip4)">
<path style=" stroke:none;fill-rule:nonzero;fill:rgb(100%,100%,100%);fill-opacity:1;" d="M 64.429688 65.433594 C 64.429688 68.234375 65.003906 70.445312 66.15625 72.058594 C 67.328125 73.675781 68.910156 74.484375 70.898438 74.484375 C 72.867188 74.484375 74.4375 73.675781 75.613281 72.058594 C 76.785156 70.421875 77.371094 68.210938 77.371094 65.433594 C 77.371094 62.679688 76.773438 60.503906 75.578125 58.910156 C 74.40625 57.296875 72.824219 56.488281 70.832031 56.488281 C 68.886719 56.488281 67.328125 57.296875 66.15625 58.910156 C 65.003906 60.503906 64.429688 62.679688 64.429688 65.433594 M 78.035156 75.714844 C 77.371094 77.332031 76.296875 78.59375 74.816406 79.503906 C 73.355469 80.390625 71.640625 80.835938 69.671875 80.835938 C 65.867188 80.835938 62.769531 79.425781 60.382812 76.601562 C 58.015625 73.753906 56.832031 70.054688 56.832031 65.503906 C 56.832031 60.949219 58.023438 57.25 60.414062 54.40625 C 62.804688 51.558594 65.890625 50.136719 69.671875 50.136719 C 71.640625 50.136719 73.355469 50.589844 74.816406 51.5 C 76.296875 52.414062 77.371094 53.675781 78.035156 55.292969 L 78.035156 50.820312 L 84.96875 50.820312 L 84.96875 74.484375 C 87.710938 74.050781 89.871094 72.699219 91.441406 70.421875 C 93.011719 68.121094 93.796875 65.183594 93.796875 61.609375 C 93.796875 59.332031 93.476562 57.203125 92.832031 55.222656 C 92.191406 53.21875 91.21875 51.386719 89.914062 49.726562 C 87.8125 46.949219 85.179688 44.808594 82.015625 43.304688 C 78.875 41.804688 75.46875 41.050781 71.796875 41.050781 C 69.230469 41.050781 66.773438 41.40625 64.429688 42.109375 C 62.085938 42.792969 59.917969 43.804688 57.925781 45.148438 C 54.652344 47.382812 52.097656 50.273438 50.261719 53.824219 C 48.445312 57.351562 47.539062 61.175781 47.539062 65.296875 C 47.539062 68.691406 48.125 71.878906 49.296875 74.859375 C 50.492188 77.820312 52.207031 80.4375 54.441406 82.714844 C 56.652344 84.945312 59.1875 86.640625 62.039062 87.804688 C 64.917969 88.988281 67.980469 89.578125 71.230469 89.578125 C 74.019531 89.578125 76.804688 89.042969 79.59375 87.972656 C 82.382812 86.902344 84.757812 85.457031 86.726562 83.636719 L 90.277344 89.167969 C 87.511719 91.378906 84.492188 93.0625 81.21875 94.222656 C 77.96875 95.40625 74.660156 96 71.296875 96 C 67.207031 96 63.34375 95.246094 59.71875 93.746094 C 56.089844 92.265625 52.859375 90.101562 50.027344 87.257812 C 47.195312 84.410156 45.039062 81.121094 43.558594 77.386719 C 42.074219 73.628906 41.332031 69.601562 41.332031 65.296875 C 41.332031 61.15625 42.085938 57.203125 43.589844 53.449219 C 45.09375 49.691406 47.242188 46.390625 50.027344 43.542969 C 52.816406 40.722656 56.054688 38.535156 59.75 36.988281 C 63.464844 35.4375 67.316406 34.664062 71.296875 34.664062 C 76.253906 34.664062 80.753906 35.644531 84.804688 37.601562 C 88.851562 39.539062 92.234375 42.335938 94.957031 46.003906 C 96.617188 48.234375 97.867188 50.660156 98.707031 53.277344 C 99.570312 55.871094 100 58.605469 100 61.472656 C 100 67.644531 98.199219 72.433594 94.589844 75.851562 C 90.984375 79.265625 85.898438 80.972656 79.328125 80.972656 L 78.035156 80.972656 L 78.035156 75.714844 "/>
</g>
<mask id="mask4">
  <g filter="url(#alpha)">
<rect x="0" y="0" width="128" height="128" style="fill:rgb(0%,0%,0%);fill-opacity:0.4;stroke:none;"/>
  </g>
</mask>
<linearGradient id="linear4" gradientUnits="userSpaceOnUse" x1="28.252" y1="4.0341" x2="40.978" y2="24.62" >
<stop offset="0" style="stop-color:rgb(100%,100%,100%);stop-opacity:1;"/>
<stop offset="1" style="stop-color:rgb(100%,100%,100%);stop-opacity:0;"/>
</linearGradient>
<clipPath id="clip5">
  <rect x="0" y="0" width="128" height="128"/>
</clipPath>
<g id="surface17" clip-path="url(#clip5)">
<path style="fill:none;stroke-width:0.96683;stroke-linecap:square;stroke-linejoin:round;stroke:url(#linear4);stroke-miterlimit:4;" d="M 12.445312 4.549805 L 40.494141 4.517578 L 40.494141 44.723145 " transform="matrix(2.666667,0,0,2.666667,0,0)"/>
</g>
<linearGradient id="linear5" gradientUnits="userSpaceOnUse" x1="24.627" y1="3.1234" x2="24.64" y2="4.8826" gradientTransform="matrix(1.004,0,0,1.5381,1.2233,-4.04)">
<stop offset="0" style="stop-color:rgb(93.333333%,93.333333%,93.333333%);stop-opacity:1;"/>
<stop offset="1" style="stop-color:rgb(85.098039%,85.098039%,85.490196%);stop-opacity:1;"/>
</linearGradient>
<linearGradient id="linear6" gradientUnits="userSpaceOnUse" x1="5.7542" y1="5.2438" x2="55.495" y2="0.065302" gradientTransform="matrix(0.71628,0,0,0.74716,2.1542,-0.051651)">
<stop offset="0" style="stop-color:rgb(30.588235%,33.333333%,35.294118%);stop-opacity:1;"/>
<stop offset="0.15978" style="stop-color:rgb(8.235294%,10.980392%,12.54902%);stop-opacity:1;"/>
<stop offset="0.16723" style="stop-color:rgb(60.784314%,52.941176%,42.352941%);stop-opacity:1;"/>
<stop offset="0.75216" style="stop-color:rgb(60.784314%,52.941176%,42.352941%);stop-opacity:1;"/>
<stop offset="0.9386" style="stop-color:rgb(60.784314%,52.941176%,42.352941%);stop-opacity:1;"/>
<stop offset="0.94891" style="stop-color:rgb(76.078431%,76.078431%,76.078431%);stop-opacity:1;"/>
<stop offset="1" style="stop-color:rgb(76.078431%,76.078431%,76.078431%);stop-opacity:1;"/>
</linearGradient>
</defs>
<g id="surface1">
<use xlink:href="#surface5" mask="url(#mask0)"/>
<use xlink:href="#surface8" mask="url(#mask1)"/>
<use xlink:href="#surface11" mask="url(#mask2)"/>
<path style="fill-rule:nonzero;fill:url(#linear1);stroke-width:1.019;stroke-linecap:round;stroke-linejoin:round;stroke:url(#linear2);stroke-miterlimit:0;" d="M 7.822266 3.549316 L 41.181152 3.549316 C 41.352539 3.549316 41.490234 3.697266 41.490234 3.880371 L 41.490234 45.161133 C 41.490234 45.342773 41.352539 45.490723 41.181152 45.490723 L 7.822266 45.490723 C 7.650879 45.490723 7.513184 45.342773 7.513184 45.161133 L 7.513184 3.880371 C 7.513184 3.697266 7.650879 3.549316 7.822266 3.549316 Z M 7.822266 3.549316 " transform="matrix(2.666667,0,0,2.666667,0,0)"/>
<path style=" stroke:none;fill-rule:nonzero;fill:url(#linear3);" d="M 16.367188 5.53125 C 22.816406 9.613281 28.589844 7.917969 31.992188 8.339844 L 31.992188 122.324219 L 19.554688 122.324219 C 19.554688 122.324219 16.367188 122.324219 16.367188 119.054688 Z M 16.367188 5.53125 "/>
<path style=" stroke:none;fill-rule:nonzero;fill:rgb(30.196078%,30.196078%,30.196078%);fill-opacity:1;" d="M 28.671875 11.398438 L 30.003906 11.398438 C 30.949219 11.398438 31.710938 12.351562 31.710938 13.53125 L 31.710938 117.992188 C 31.710938 119.167969 30.949219 120.121094 30.003906 120.121094 L 28.671875 120.121094 C 27.730469 120.121094 26.964844 119.167969 26.964844 117.992188 L 26.964844 13.53125 C 26.964844 12.351562 27.730469 11.398438 28.671875 11.398438 Z M 28.671875 11.398438 "/>
<use xlink:href="#surface14" mask="url(#mask3)"/>
<use xlink:href="#surface17" mask="url(#mask4)"/>
<path style="fill-rule:nonzero;fill:url(#linear5);stroke-width:1.0174;stroke-linecap:butt;stroke-linejoin:round;stroke:url(#linear6);stroke-miterlimit:0;" d="M 40.838379 3.216797 C 40.543945 2.226562 40.727051 1.45459 40.564453 0.508301 L 10.324219 0.508301 C 8.753906 0.508301 7.202637 0.739746 6.764648 1.675781 C 6.739746 1.728516 6.713379 1.782715 6.697266 1.839844 C 6.295898 2.805176 7.959961 3.561035 10.50293 3.561035 L 12.017578 3.561035 " transform="matrix(2.666667,0,0,2.666667,0,0)"/>
<path style="fill:none;stroke-width:1;stroke-linecap:butt;stroke-linejoin:miter;stroke:rgb(63.137255%,55.294118%,44.705882%);stroke-opacity:1;stroke-miterlimit:4;" d="M 41.308594 3.555176 L 11.988281 3.555176 " transform="matrix(2.666667,0,0,2.666667,0,0)"/>
<path style=" stroke:none;fill-rule:nonzero;fill:rgb(45.490196%,41.176471%,33.72549%);fill-opacity:1;" d="M 64.429688 62.769531 C 64.429688 65.566406 65.003906 67.777344 66.15625 69.394531 C 67.328125 71.007812 68.910156 71.816406 70.898438 71.816406 C 72.867188 71.816406 74.4375 71.007812 75.613281 69.394531 C 76.785156 67.753906 77.371094 65.546875 77.371094 62.769531 C 77.371094 60.011719 76.773438 57.839844 75.578125 56.246094 C 74.40625 54.628906 72.824219 53.820312 70.832031 53.820312 C 68.886719 53.820312 67.328125 54.628906 66.15625 56.246094 C 65.003906 57.839844 64.429688 60.011719 64.429688 62.769531 M 78.035156 73.046875 C 77.371094 74.664062 76.296875 75.925781 74.816406 76.835938 C 73.355469 77.726562 71.640625 78.167969 69.671875 78.167969 C 65.867188 78.167969 62.769531 76.757812 60.382812 73.933594 C 58.015625 71.089844 56.832031 67.390625 56.832031 62.835938 C 56.832031 58.28125 58.023438 54.582031 60.414062 51.738281 C 62.804688 48.890625 65.890625 47.46875 69.671875 47.46875 C 71.640625 47.46875 73.355469 47.925781 74.816406 48.835938 C 76.296875 49.746094 77.371094 51.007812 78.035156 52.625 L 78.035156 48.152344 L 84.96875 48.152344 L 84.96875 71.816406 C 87.710938 71.386719 89.871094 70.03125 91.441406 67.753906 C 93.011719 65.453125 93.796875 62.519531 93.796875 58.945312 C 93.796875 56.667969 93.476562 54.539062 92.832031 52.558594 C 92.191406 50.554688 91.21875 48.722656 89.914062 47.058594 C 87.8125 44.28125 85.179688 42.140625 82.015625 40.640625 C 78.875 39.136719 75.46875 38.386719 71.796875 38.386719 C 69.230469 38.386719 66.773438 38.738281 64.429688 39.445312 C 62.085938 40.125 59.917969 41.140625 57.925781 42.484375 C 54.652344 44.714844 52.097656 47.605469 50.261719 51.15625 C 48.445312 54.6875 47.539062 58.511719 47.539062 62.632812 C 47.539062 66.023438 48.125 69.210938 49.296875 72.195312 C 50.492188 75.152344 52.207031 77.769531 54.441406 80.046875 C 56.652344 82.277344 59.1875 83.976562 62.039062 85.136719 C 64.917969 86.320312 67.980469 86.910156 71.230469 86.910156 C 74.019531 86.910156 76.804688 86.378906 79.59375 85.308594 C 82.382812 84.238281 84.757812 82.792969 86.726562 80.96875 L 90.277344 86.503906 C 87.511719 88.710938 84.492188 90.394531 81.21875 91.554688 C 77.96875 92.738281 74.660156 93.332031 71.296875 93.332031 C 67.207031 93.332031 63.34375 92.582031 59.71875 91.078125 C 56.089844 89.597656 52.859375 87.433594 50.027344 84.589844 C 47.195312 81.742188 45.039062 78.453125 43.558594 74.71875 C 42.074219 70.964844 41.332031 66.933594 41.332031 62.632812 C 41.332031 58.488281 42.085938 54.539062 43.589844 50.78125 C 45.09375 47.023438 47.242188 43.722656 50.027344 40.878906 C 52.816406 38.054688 56.054688 35.867188 59.75 34.320312 C 63.464844 32.773438 67.316406 32 71.296875 32 C 76.253906 32 80.753906 32.976562 84.804688 34.933594 C 88.851562 36.871094 92.234375 39.671875 94.957031 43.335938 C 96.617188 45.566406 97.867188 47.992188 98.707031 50.609375 C 99.570312 53.207031 100 55.9375 100 58.804688 C 100 64.976562 98.199219 69.769531 94.589844 73.183594 C 90.984375 76.597656 85.898438 78.304688 79.328125 78.304688 L 78.035156 78.304688 L 78.035156 73.046875 "/>
</g>
</svg>
