<?xml version="1.0" encoding="UTF-8"?>
<svg xmlns="http://www.w3.org/2000/svg" xmlns:xlink="http://www.w3.org/1999/xlink" width="64pt" height="64pt" viewBox="0 0 64 64" version="1.1">
<defs>
<filter id="alpha" filterUnits="objectBoundingBox" x="0%" y="0%" width="100%" height="100%">
  <feColorMatrix type="matrix" in="SourceGraphic" values="0 0 0 0 1 0 0 0 0 1 0 0 0 0 1 0 0 0 1 0"/>
</filter>
<mask id="mask0">
  <g filter="url(#alpha)">
<rect x="0" y="0" width="64" height="64" style="fill:rgb(0%,0%,0%);fill-opacity:0.403922;stroke:none;"/>
  </g>
</mask>
<linearGradient id="linear0" gradientUnits="userSpaceOnUse" x1="302.86" y1="366.65" x2="302.86" y2="609.51" gradientTransform="matrix(0.0897666,0,0,0.0196007,-0.454802,50.720328)">
<stop offset="0" style="stop-color:rgb(0%,0%,0%);stop-opacity:0;"/>
<stop offset="0.5" style="stop-color:rgb(0%,0%,0%);stop-opacity:1;"/>
<stop offset="1" style="stop-color:rgb(0%,0%,0%);stop-opacity:0;"/>
</linearGradient>
<clipPath id="clip1">
  <rect x="0" y="0" width="64" height="64"/>
</clipPath>
<g id="surface5" clip-path="url(#clip1)">
<path style=" stroke:none;fill-rule:nonzero;fill:url(#linear0);" d="M 10.316406 57.90625 L 53.660156 57.90625 L 53.660156 62.667969 L 10.316406 62.667969 Z M 10.316406 57.90625 "/>
</g>
<mask id="mask1">
  <g filter="url(#alpha)">
<rect x="0" y="0" width="64" height="64" style="fill:rgb(0%,0%,0%);fill-opacity:0.403922;stroke:none;"/>
  </g>
</mask>
<radialGradient id="radial0" gradientUnits="userSpaceOnUse" cx="605.71" cy="486.65" fx="605.71" fy="486.65" r="117.14" gradientTransform="matrix(-0.0307198,0,0,0.0196007,28.83044,50.720328)">
<stop offset="0" style="stop-color:rgb(0%,0%,0%);stop-opacity:1;"/>
<stop offset="1" style="stop-color:rgb(0%,0%,0%);stop-opacity:0;"/>
</radialGradient>
<clipPath id="clip2">
  <rect x="0" y="0" width="64" height="64"/>
</clipPath>
<g id="surface8" clip-path="url(#clip2)">
<path style=" stroke:none;fill-rule:nonzero;fill:url(#radial0);" d="M 10.316406 57.90625 L 10.316406 62.667969 C 8.734375 62.675781 6.492188 61.601562 6.492188 60.285156 C 6.492188 58.972656 8.257812 57.90625 10.316406 57.90625 Z M 10.316406 57.90625 "/>
</g>
<mask id="mask2">
  <g filter="url(#alpha)">
<rect x="0" y="0" width="64" height="64" style="fill:rgb(0%,0%,0%);fill-opacity:0.403922;stroke:none;"/>
  </g>
</mask>
<radialGradient id="radial1" gradientUnits="userSpaceOnUse" cx="605.71" cy="486.65" fx="605.71" fy="486.65" r="117.14" gradientTransform="matrix(0.0307198,0,0,0.0196007,35.148547,50.720328)">
<stop offset="0" style="stop-color:rgb(0%,0%,0%);stop-opacity:1;"/>
<stop offset="1" style="stop-color:rgb(0%,0%,0%);stop-opacity:0;"/>
</radialGradient>
<clipPath id="clip3">
  <rect x="0" y="0" width="64" height="64"/>
</clipPath>
<g id="surface11" clip-path="url(#clip3)">
<path style=" stroke:none;fill-rule:nonzero;fill:url(#radial1);" d="M 53.660156 57.90625 L 53.660156 62.667969 C 55.242188 62.675781 57.484375 61.601562 57.484375 60.285156 C 57.484375 58.972656 55.722656 57.90625 53.660156 57.90625 Z M 53.660156 57.90625 "/>
</g>
<linearGradient id="linear1" gradientUnits="userSpaceOnUse" x1="16.102" y1="9.8889" x2="38.491" y2="46" gradientTransform="matrix(0.97391,0,0,1.0485,2.0472,-2.2169)">
<stop offset="0" style="stop-color:rgb(86.666667%,81.176471%,74.117647%);stop-opacity:1;"/>
<stop offset="1" style="stop-color:rgb(52.156863%,43.529412%,31.372549%);stop-opacity:1;"/>
</linearGradient>
<linearGradient id="linear2" gradientUnits="userSpaceOnUse" x1="22.334" y1="11.03" x2="53.453" y2="61.22" gradientTransform="matrix(0.70071,0,0,0.75439,2.0789,-0.16914)">
<stop offset="0" style="stop-color:rgb(68.627451%,60.784314%,49.803922%);stop-opacity:1;"/>
<stop offset="1" style="stop-color:rgb(45.098039%,38.039216%,28.235294%);stop-opacity:1;"/>
</linearGradient>
<linearGradient id="linear3" gradientUnits="userSpaceOnUse" x1="5.4801" y1="25.019" x2="8.5001" y2="25.019" gradientTransform="matrix(1.11616,0,0,1.3904,2.602133,-2.796267)">
<stop offset="0" style="stop-color:rgb(30.196078%,32.941176%,34.901961%);stop-opacity:0.996078;"/>
<stop offset="1" style="stop-color:rgb(7.843137%,10.588235%,12.156863%);stop-opacity:1;"/>
</linearGradient>
<mask id="mask3">
  <g filter="url(#alpha)">
<rect x="0" y="0" width="64" height="64" style="fill:rgb(0%,0%,0%);fill-opacity:0.4;stroke:none;"/>
  </g>
</mask>
<clipPath id="clip4">
  <rect x="0" y="0" width="64" height="64"/>
</clipPath>
<g id="surface14" clip-path="url(#clip4)">
<path style=" stroke:none;fill-rule:nonzero;fill:rgb(100%,100%,100%);fill-opacity:1;" d="M 32.214844 32.71875 C 32.214844 34.117188 32.503906 35.222656 33.078125 36.03125 C 33.664062 36.839844 34.453125 37.242188 35.449219 37.242188 C 36.433594 37.242188 37.21875 36.839844 37.804688 36.03125 C 38.390625 35.210938 38.683594 34.105469 38.683594 32.71875 C 38.683594 31.339844 38.386719 30.253906 37.789062 29.457031 C 37.203125 28.648438 36.414062 28.242188 35.417969 28.242188 C 34.445312 28.242188 33.664062 28.648438 33.078125 29.457031 C 32.503906 30.253906 32.214844 31.339844 32.214844 32.71875 M 39.015625 37.855469 C 38.683594 38.664062 38.148438 39.296875 37.40625 39.753906 C 36.679688 40.195312 35.820312 40.417969 34.835938 40.417969 C 32.933594 40.417969 31.386719 39.710938 30.191406 38.300781 C 29.007812 36.878906 28.414062 35.027344 28.414062 32.75 C 28.414062 30.476562 29.011719 28.625 30.207031 27.203125 C 31.402344 25.777344 32.945312 25.066406 34.835938 25.066406 C 35.820312 25.066406 36.679688 25.296875 37.40625 25.75 C 38.148438 26.207031 38.683594 26.839844 39.015625 27.644531 L 39.015625 25.410156 L 42.484375 25.410156 L 42.484375 37.242188 C 43.855469 37.027344 44.933594 36.347656 45.71875 35.210938 C 46.503906 34.0625 46.898438 32.59375 46.898438 30.804688 C 46.898438 29.667969 46.738281 28.601562 46.417969 27.613281 C 46.097656 26.609375 45.609375 25.695312 44.957031 24.863281 C 43.90625 23.472656 42.589844 22.402344 41.007812 21.652344 C 39.4375 20.902344 37.734375 20.527344 35.898438 20.527344 C 34.613281 20.527344 33.386719 20.703125 32.214844 21.054688 C 31.042969 21.398438 29.957031 21.902344 28.964844 22.574219 C 27.324219 23.691406 26.046875 25.136719 25.128906 26.910156 C 24.222656 28.675781 23.769531 30.589844 23.769531 32.648438 C 23.769531 34.34375 24.0625 35.9375 24.648438 37.429688 C 25.246094 38.910156 26.105469 40.21875 27.222656 41.355469 C 28.328125 42.472656 29.59375 43.320312 31.019531 43.902344 C 32.457031 44.492188 33.988281 44.789062 35.617188 44.789062 C 37.007812 44.789062 38.402344 44.523438 39.796875 43.988281 C 41.191406 43.453125 42.378906 42.730469 43.363281 41.816406 L 45.140625 44.585938 C 43.757812 45.6875 42.246094 46.53125 40.609375 47.113281 C 38.984375 47.703125 37.332031 48 35.648438 48 C 33.601562 48 31.671875 47.625 29.859375 46.871094 C 28.042969 46.132812 26.429688 45.050781 25.015625 43.628906 C 23.597656 42.207031 22.519531 40.558594 21.777344 38.695312 C 21.039062 36.816406 20.667969 34.800781 20.667969 32.648438 C 20.667969 30.578125 21.042969 28.601562 21.796875 26.722656 C 22.546875 24.84375 23.621094 23.195312 25.015625 21.773438 C 26.40625 20.359375 28.027344 19.269531 29.875 18.492188 C 31.734375 17.71875 33.65625 17.332031 35.648438 17.332031 C 38.125 17.332031 40.378906 17.820312 42.402344 18.800781 C 44.425781 19.769531 46.117188 21.167969 47.476562 23 C 48.308594 24.117188 48.933594 25.328125 49.351562 26.636719 C 49.785156 27.9375 50 29.300781 50 30.738281 C 50 33.820312 49.097656 36.21875 47.296875 37.925781 C 45.492188 39.632812 42.949219 40.484375 39.664062 40.484375 L 39.015625 40.484375 L 39.015625 37.855469 "/>
</g>
<mask id="mask4">
  <g filter="url(#alpha)">
<rect x="0" y="0" width="64" height="64" style="fill:rgb(0%,0%,0%);fill-opacity:0.4;stroke:none;"/>
  </g>
</mask>
<linearGradient id="linear4" gradientUnits="userSpaceOnUse" x1="28.252" y1="4.0341" x2="40.978" y2="24.62" >
<stop offset="0" style="stop-color:rgb(100%,100%,100%);stop-opacity:1;"/>
<stop offset="1" style="stop-color:rgb(100%,100%,100%);stop-opacity:0;"/>
</linearGradient>
<clipPath id="clip5">
  <rect x="0" y="0" width="64" height="64"/>
</clipPath>
<g id="surface17" clip-path="url(#clip5)">
<path style="fill:none;stroke-width:0.96683;stroke-linecap:square;stroke-linejoin:round;stroke:url(#linear4);stroke-miterlimit:4;" d="M 12.445312 4.549805 L 40.494141 4.517578 L 40.494141 44.72168 " transform="matrix(1.333333,0,0,1.333333,0,0)"/>
</g>
<linearGradient id="linear5" gradientUnits="userSpaceOnUse" x1="24.627" y1="3.1234" x2="24.64" y2="4.8826" gradientTransform="matrix(1.004,0,0,1.5381,1.2233,-4.04)">
<stop offset="0" style="stop-color:rgb(93.333333%,93.333333%,93.333333%);stop-opacity:1;"/>
<stop offset="1" style="stop-color:rgb(85.098039%,85.098039%,85.490196%);stop-opacity:1;"/>
</linearGradient>
<linearGradient id="linear6" gradientUnits="userSpaceOnUse" x1="5.7542" y1="5.2438" x2="55.495" y2="0.065302" gradientTransform="matrix(0.71628,0,0,0.74716,2.1542,-0.051651)">
<stop offset="0" style="stop-color:rgb(30.588235%,33.333333%,35.294118%);stop-opacity:1;"/>
<stop offset="0.15978" style="stop-color:rgb(8.235294%,10.980392%,12.54902%);stop-opacity:1;"/>
<stop offset="0.16723" style="stop-color:rgb(60.784314%,52.941176%,42.352941%);stop-opacity:1;"/>
<stop offset="0.75216" style="stop-color:rgb(60.784314%,52.941176%,42.352941%);stop-opacity:1;"/>
<stop offset="0.9386" style="stop-color:rgb(60.784314%,52.941176%,42.352941%);stop-opacity:1;"/>
<stop offset="0.94891" style="stop-color:rgb(76.078431%,76.078431%,76.078431%);stop-opacity:1;"/>
<stop offset="1" style="stop-color:rgb(76.078431%,76.078431%,76.078431%);stop-opacity:1;"/>
</linearGradient>
</defs>
<g id="surface1">
<use xlink:href="#surface5" mask="url(#mask0)"/>
<use xlink:href="#surface8" mask="url(#mask1)"/>
<use xlink:href="#surface11" mask="url(#mask2)"/>
<path style="fill-rule:nonzero;fill:url(#linear1);stroke-width:1.019;stroke-linecap:round;stroke-linejoin:round;stroke:url(#linear2);stroke-miterlimit:0;" d="M 7.822266 3.550781 L 41.182617 3.550781 C 41.352539 3.550781 41.490234 3.697266 41.490234 3.878906 L 41.490234 45.161133 C 41.490234 45.342773 41.352539 45.492188 41.182617 45.492188 L 7.822266 45.492188 C 7.652344 45.492188 7.511719 45.342773 7.511719 45.161133 L 7.511719 3.878906 C 7.511719 3.697266 7.652344 3.550781 7.822266 3.550781 Z M 7.822266 3.550781 " transform="matrix(1.333333,0,0,1.333333,0,0)"/>
<path style=" stroke:none;fill-rule:nonzero;fill:url(#linear3);" d="M 8.183594 2.765625 C 11.40625 4.804688 14.292969 3.960938 15.996094 4.171875 L 15.996094 61.164062 L 9.777344 61.164062 C 9.777344 61.164062 8.183594 61.164062 8.183594 59.527344 Z M 8.183594 2.765625 "/>
<path style=" stroke:none;fill-rule:nonzero;fill:rgb(30.196078%,30.196078%,30.196078%);fill-opacity:1;" d="M 14.335938 5.699219 L 15.003906 5.699219 C 15.472656 5.699219 15.855469 6.175781 15.855469 6.765625 L 15.855469 58.996094 C 15.855469 59.582031 15.472656 60.058594 15.003906 60.058594 L 14.335938 60.058594 C 13.863281 60.058594 13.484375 59.582031 13.484375 58.996094 L 13.484375 6.765625 C 13.484375 6.175781 13.863281 5.699219 14.335938 5.699219 Z M 14.335938 5.699219 "/>
<use xlink:href="#surface14" mask="url(#mask3)"/>
<use xlink:href="#surface17" mask="url(#mask4)"/>
<path style="fill-rule:nonzero;fill:url(#linear5);stroke-width:1.0174;stroke-linecap:butt;stroke-linejoin:round;stroke:url(#linear6);stroke-miterlimit:0;" d="M 40.839844 3.216797 C 40.543945 2.226562 40.728516 1.453125 40.564453 0.509766 L 10.324219 0.509766 C 8.753906 0.509766 7.204102 0.738281 6.764648 1.675781 C 6.741211 1.728516 6.711914 1.78125 6.697266 1.839844 C 6.295898 2.806641 7.959961 3.5625 10.50293 3.5625 L 12.017578 3.5625 " transform="matrix(1.333333,0,0,1.333333,0,0)"/>
<path style="fill:none;stroke-width:1;stroke-linecap:butt;stroke-linejoin:miter;stroke:rgb(63.137255%,55.294118%,44.705882%);stroke-opacity:1;stroke-miterlimit:4;" d="M 41.308594 3.556641 L 11.988281 3.556641 " transform="matrix(1.333333,0,0,1.333333,0,0)"/>
<path style=" stroke:none;fill-rule:nonzero;fill:rgb(45.490196%,41.176471%,33.72549%);fill-opacity:1;" d="M 32.214844 31.382812 C 32.214844 32.785156 32.503906 33.886719 33.078125 34.695312 C 33.664062 35.503906 34.453125 35.910156 35.449219 35.910156 C 36.433594 35.910156 37.21875 35.503906 37.804688 34.695312 C 38.390625 33.875 38.683594 32.773438 38.683594 31.382812 C 38.683594 30.007812 38.386719 28.917969 37.789062 28.121094 C 37.203125 27.316406 36.414062 26.910156 35.417969 26.910156 C 34.445312 26.910156 33.664062 27.316406 33.078125 28.121094 C 32.503906 28.917969 32.214844 30.007812 32.214844 31.382812 M 39.015625 36.523438 C 38.683594 37.332031 38.148438 37.964844 37.40625 38.417969 C 36.679688 38.863281 35.820312 39.085938 34.835938 39.085938 C 32.933594 39.085938 31.386719 38.378906 30.191406 36.96875 C 29.007812 35.542969 28.414062 33.695312 28.414062 31.417969 C 28.414062 29.140625 29.011719 27.292969 30.207031 25.867188 C 31.402344 24.445312 32.945312 23.734375 34.835938 23.734375 C 35.820312 23.734375 36.679688 23.960938 37.40625 24.417969 C 38.148438 24.871094 38.683594 25.503906 39.015625 26.3125 L 39.015625 24.074219 L 42.484375 24.074219 L 42.484375 35.910156 C 43.855469 35.691406 44.933594 35.015625 45.71875 33.878906 C 46.503906 32.726562 46.898438 31.257812 46.898438 29.472656 C 46.898438 28.332031 46.738281 27.269531 46.417969 26.277344 C 46.097656 25.277344 45.609375 24.359375 44.957031 23.53125 C 43.90625 22.140625 42.589844 21.070312 41.007812 20.320312 C 39.4375 19.566406 37.734375 19.191406 35.898438 19.191406 C 34.613281 19.191406 33.386719 19.367188 32.214844 19.722656 C 31.042969 20.0625 29.957031 20.570312 28.964844 21.242188 C 27.324219 22.355469 26.046875 23.804688 25.128906 25.578125 C 24.222656 27.34375 23.769531 29.253906 23.769531 31.316406 C 23.769531 33.011719 24.0625 34.605469 24.648438 36.097656 C 25.246094 37.578125 26.105469 38.886719 27.222656 40.023438 C 28.328125 41.140625 29.59375 41.988281 31.019531 42.566406 C 32.457031 43.160156 33.988281 43.457031 35.617188 43.457031 C 37.007812 43.457031 38.402344 43.1875 39.796875 42.652344 C 41.191406 42.117188 42.378906 41.394531 43.363281 40.484375 L 45.140625 43.25 C 43.757812 44.355469 42.246094 45.199219 40.609375 45.777344 C 38.984375 46.371094 37.332031 46.667969 35.648438 46.667969 C 33.601562 46.667969 31.671875 46.289062 29.859375 45.539062 C 28.042969 44.800781 26.429688 43.71875 25.015625 42.292969 C 23.597656 40.871094 22.519531 39.226562 21.777344 37.359375 C 21.039062 35.480469 20.667969 33.46875 20.667969 31.316406 C 20.667969 29.242188 21.042969 27.269531 21.796875 25.390625 C 22.546875 23.511719 23.621094 21.863281 25.015625 20.4375 C 26.40625 19.027344 28.027344 17.933594 29.875 17.160156 C 31.734375 16.386719 33.65625 16 35.648438 16 C 38.125 16 40.378906 16.488281 42.402344 17.46875 C 44.425781 18.433594 46.117188 19.835938 47.476562 21.667969 C 48.308594 22.785156 48.933594 23.996094 49.351562 25.304688 C 49.785156 26.601562 50 27.96875 50 29.402344 C 50 32.488281 49.097656 34.882812 47.296875 36.589844 C 45.492188 38.300781 42.949219 39.152344 39.664062 39.152344 L 39.015625 39.152344 L 39.015625 36.523438 "/>
</g>
</svg>
